
<svg xmlns="http://www.w3.org/2000/svg" viewBox="0 0 168.93 56.61"><path d="M165.62 11.91c1.85 0 3.3 1.44 3.3 3.26 0 1.87-1.46 3.3-3.32 3.3-1.87 0-3.34-1.43-3.34-3.3 0-1.82 1.48-3.26 3.34-3.26h.02zm-.03.58c-1.48 0-2.6 1.21-2.6 2.69 0 1.52 1.13 2.71 2.64 2.71 1.48.02 2.57-1.19 2.57-2.69s-1.09-2.71-2.59-2.71h-.02zm-.58 4.49h-.64v-3.43c.35-.06.72-.11 1.19-.11.57 0 .86.11 1.09.27.2.14.35.41.35.72 0 .43-.31.7-.68.82v.04c.31.12.47.39.57.82.1.54.16.74.25.86h-.66c-.1-.12-.19-.43-.27-.9-.08-.37-.31-.54-.8-.54H165v1.45zm0-1.93h.43c.47 0 .88-.14.88-.55 0-.33-.21-.56-.82-.56-.25 0-.39.02-.49.04v1.07zM73.56 37.9c-.36-.36-.83-.89-.83-2.38V13.53c0-1.49-.78-1.61-1.43-1.61h-9.53c-.36 0-.42 0-.6.48l-.53 1.19c-.36.71.24.95.83 1.13 2.68.65 3.34 1.61 3.34 3.58v3.4c0 4.71-.18 8.76-1.79 11.62-1.25 2.33-3.34 4.05-5.3 4.05-3.22 0-4.71-1.79-4.71-8.34v-15.5c0-1.49-.77-1.61-1.43-1.61h-9.53c-.36 0-.72 0-.89.48l-.54 1.19c-.36.71.24.95.83 1.13 2.74.59 3.64 1.01 3.64 3.58v13.94c0 7.09 3.1 10.19 9.05 10.19 2.62 0 5.96-1.55 8.4-3.46l2.26-1.73v3.28c0 1.25.77 1.19 1.43 1.19h9.05c.78 0 1.49.06 1.79-.54l.35-.83c1.08-1.96-2.43-1.01-3.86-2.44zm19.72-14.42c-3.46-2.86-6.44-4.05-6.56-6.32-.06-1.19 1.73-3.16 3.81-3.16 2.38 0 3.88.84 4.83 2.33.89 1.25 1.79 3.45 2.15 3.1l1.01-.84c.12-.17.3-.36.3-.53v-4.47c0-.78-.54-1.43-1.55-1.67-1.67-.36-4.36-.71-6.85-.71-7.93 0-11.44 3.81-11.44 7.98 0 4.46 4.41 6.67 7.51 8.93 2.56 1.91 6.19 4.29 6.31 6.91.06 2.56-2.09 4.53-5.24 4.53-2.62 0-4.71-1.67-5.66-3.81-1.19-2.03-1.13-4.23-1.79-3.99l-1.19.42c-.36.12-.3.9-.3 1.43v5.78c0 .48.9.95 1.55 1.37 2.09 1.19 5.3 1.67 8.52 1.67 5.42 0 11.86-2.44 11.86-8.76-.01-3.46-1.62-5.48-7.27-10.19zm66.36-11.56h-9.35c-.48 0-.78.71-.95 1.07l-.36.66c-.71 1.49 5.66.89 4.11 4.11l-6.97 15.14-6.02-14.54c-1.37-3.28 2.5-3.1 2.98-4.23l.48-1.19c.3-.78-.18-1.01-1.01-1.01H129.5c-.54 0-.95.23-1.13.71l-.54 1.43c-.24.54.36.77 1.25 1.13.78.36 1.55.89 2.74 3.58l9.83 22.28-3.04 6.56c-1.37 2.98-2.98 4.11-4.05 4.41l-2.92.89c-.71.18-1.25.3-.95 1.07l.71 1.67c.42.96 1.01.96 1.91.96h2.68c2.62 0 3.81-1.79 4.94-4.29l16.03-33.54c.72-1.49 1.02-2.15 1.43-2.62.89-1.01 2.27-.95 2.62-2.02l.3-1.01c.42-1.22-.65-1.22-1.67-1.22zm-42.65-.71c-8.82 0-15.25 5.96-15.25 15.91 0 8.16 5.96 15.31 16.56 15.31 2.33 0 5.6-.54 6.97-1.19.66-.35.95-.95 1.25-1.49l1.91-3.87c.47-.95-1.25-1.73-1.85-1.19-2.08 2.27-3.99 3.64-7.51 3.64-6.01 0-8.93-5.42-8.93-11.26h17.69c.83 0 1.37-1.31 1.37-2.38 0-8-4.11-13.48-12.21-13.48zm2.85 12.63h-9.71c0-5.01 2.5-9.71 6.73-9.71 2.56 0 5.3 1.73 5.3 7.09.01 1.66-.71 2.62-2.32 2.62zM17.6 42.29c-2.32-1.43-3.46-3.63-3.49-6.2V12.91c0-.6.49-1.09 1.09-1.09.6 0 1.09.49 1.09 1.09v23.16c.03 4.02 3.31 6.25 8.72 6.35 7.99-.21 15.95-3.83 15.95-12.62 0-3.93-2.86-10.13-11.5-11.08v-.12c5.18-1.78 8.64-5.24 8.46-9.59-.28-6.84-6.01-9-12.19-9H1.84C1.43 0 .94.18.66.71L.1 1.85c-.35.65.28.83 1.33 1.07 2.92.41 4.33 1.38 4.4 3.72h13.52c.04-1.09.31-1.89.85-2.47.72-.68 1.87-1.02 3.55-.86.11.01.22.02.33.04.22.03.43.06.66.1 3.07.58 4.79 2.35 4.79 6.74 0 3.93-2.62 7.62-7.51 7.62h-.47c-.7.01-.97.31-.98.91v1.33c.01.71.32.98.93.98h.4c5.96 0 9.53 3.52 9.65 9 .12 5.6-2.68 9.18-7.56 9.18-3.08 0-4.65-1.31-4.65-5.3V11.57c.75 0 1.38-.62 1.38-1.38 0-.73-.57-1.38-1.38-1.38H5.84c-.72 0-1.38.62-1.38 1.38 0 .76.64 1.38 1.38 1.38v24.16c0 3.03 2.37 4.92 5.34 5.63-1.7-1.37-2.3-2.9-2.29-5.2l-.01-23.25c0-.6.49-1.09 1.09-1.09.6 0 1.09.49 1.09 1.09v23.25c-.02 3.96 3.04 5.59 6.54 6.13z" fill="#2c546b"/></svg>