<?xml version="1.0" encoding="utf-8"?>
<!-- Generator: Adobe Illustrator 23.0.3, SVG Export Plug-In . SVG Version: 6.00 Build 0)  -->
<svg version="1.2" baseProfile="tiny" id="Layer_1" xmlns="http://www.w3.org/2000/svg" xmlns:xlink="http://www.w3.org/1999/xlink"
	 x="0px" y="0px" viewBox="0 0 866.6 204.7" xml:space="preserve">
<path d="M314,81.1c-0.8,0.5-1.8,0.7-2.7,0.5c-0.9-0.2-1.8-0.7-2.3-1.5c-2.8-4-6.5-7.2-10.8-9.4c-4.3-2.2-9.2-3.3-14-3.1
	c-18.9,0-30.6,15-30.6,36.4c0,21.4,11.8,36.7,30.8,36.7c4.9,0.1,9.8-1,14.2-3.3c4.4-2.3,8.1-5.7,10.8-9.8c0.5-0.8,1.3-1.3,2.3-1.5
	c0.9-0.2,1.9-0.1,2.7,0.4l9,5.2c0.5,0.2,0.9,0.6,1.3,1s0.6,0.9,0.7,1.5c0.1,0.5,0.1,1.1,0,1.6c-0.1,0.5-0.3,1.1-0.6,1.5
	c-4.4,6.6-10.4,12-17.4,15.6c-7,3.6-14.9,5.4-22.8,5.2c-30.3,0-50.8-22-50.8-54c0-32,20.5-53.7,50.4-53.7c7.8-0.2,15.5,1.5,22.5,4.9
	c7,3.5,13,8.6,17.6,14.9c0.3,0.4,0.5,0.9,0.7,1.4c0.1,0.5,0.1,1,0,1.6c-0.1,0.5-0.3,1-0.6,1.5s-0.7,0.8-1.1,1.1L314,81.1z"/>
<path fill-rule="evenodd" d="M380.2,147.9v4.4c0,0.5,0.1,1,0.3,1.5c0.2,0.5,0.5,0.9,0.9,1.2c0.4,0.4,0.8,0.6,1.3,0.8
	c0.5,0.2,1,0.3,1.5,0.2h9.9c0.5,0,1-0.1,1.4-0.3c0.5-0.2,0.9-0.5,1.2-0.8c0.4-0.4,0.6-0.8,0.8-1.2c0.2-0.5,0.3-1,0.3-1.4v-49.5
	c0-17.9-12.7-25.3-30.8-25.3c-10.1,0-20.1,2.5-29.1,7.3c-0.9,0.5-1.5,1.3-1.8,2.2c-0.3,0.9-0.2,1.9,0.2,2.8l3.2,6.8
	c0.2,0.5,0.5,0.9,0.9,1.2c0.4,0.3,0.8,0.6,1.3,0.7c0.5,0.2,1,0.2,1.5,0.2c0.5,0,1-0.2,1.4-0.4c6.4-3.3,13.5-5.1,20.7-5.2
	c6.3,0,13.7,1.7,13.7,8.1c0,6.7-8.1,7.9-18.1,9.3c-0.8,0.1-1.6,0.2-2.4,0.3c-10.3,1.4-27.1,4.7-27.1,23.4
	c0,15.1,10.9,23.7,26.6,23.7C368.9,157.8,375.5,154,380.2,147.9z M364.7,122.4c6-1.1,11.4-2,14.5-4.3v8.8c0,11.5-8.3,16.5-17.2,16.5
	c-7.2,0-12.1-3.2-12.1-10c0-7.4,5.7-9.3,12.5-10.5C363.2,122.7,364,122.5,364.7,122.4L364.7,122.4z"/>
<path d="M414.1,136.5c0.6-0.7,1.5-1.2,2.5-1.3c1-0.1,2,0.2,2.7,0.8c6.3,4.8,14.1,7.3,22,7.1c8.2,0,14.2-2.6,14.2-9
	c0-5.8-5.5-7-18.9-9.3c-14.2-2.4-27.8-7.1-27.8-23.3c0-16.9,14.6-24,31.2-24c10.4-0.2,20.6,3.2,28.9,9.5c0.4,0.3,0.7,0.7,1,1.2
	c0.2,0.5,0.4,0.9,0.4,1.5c0,0.5,0,1-0.2,1.5c-0.2,0.5-0.4,0.9-0.8,1.3l-4.7,5.6c-0.6,0.7-1.5,1.2-2.5,1.3c-1,0.1-1.9-0.2-2.7-0.7
	c-5.8-4.3-12.9-6.5-20.1-6.4c-7,0-13.1,2-13.1,7.6c0,6.1,8.6,7.3,17.2,8.8c18.3,3.2,30,8.4,30,23.7c0,16-12.8,25.9-33.1,25.9
	c-11.1,0.3-22-3.2-30.8-10c-0.4-0.3-0.7-0.7-1-1.2c-0.2-0.4-0.4-0.9-0.4-1.4c0-0.5,0-1,0.2-1.5c0.2-0.5,0.4-0.9,0.7-1.3L414.1,136.5
	z M484.6,152.3V55.9c0-0.5,0.1-1,0.3-1.5c0.2-0.5,0.5-0.9,0.8-1.2c0.4-0.4,0.8-0.6,1.2-0.8c0.5-0.2,1-0.3,1.4-0.3h10.9
	c2.1,0,3.8,1.7,3.8,3.8v32.9c2.7-3.6,6.3-6.5,10.3-8.5c4.1-2,8.6-2.9,13.1-2.8c16.1,0,25.6,11.5,25.6,27.9v46.9c0,0.5-0.1,1-0.3,1.4
	c-0.2,0.5-0.5,0.9-0.8,1.2c-0.4,0.4-0.8,0.6-1.2,0.8c-0.5,0.2-1,0.3-1.4,0.3h-10.9c-1,0-2-0.4-2.7-1.1c-0.7-0.7-1.1-1.7-1.1-2.7
	v-42.6c0-8.2-2.6-15.6-13.1-15.6c-9.9,0-17.5,7-17.5,18.6v39.6c0,1-0.4,2-1.1,2.7c-0.7,0.7-1.7,1.1-2.7,1.1h-10.9
	c-0.5,0-1-0.1-1.5-0.3c-0.5-0.2-0.9-0.5-1.2-0.8c-0.4-0.4-0.6-0.8-0.8-1.2C484.7,153.3,484.6,152.8,484.6,152.3L484.6,152.3z"/>
<path fill-rule="evenodd" d="M664.4,130.3l7.9,23.2c0.2,0.8,0.7,1.4,1.3,1.9c0.6,0.5,1.4,0.7,2.2,0.8h13.5c0.6,0,1.2-0.1,1.8-0.4
	c0.5-0.3,1-0.7,1.4-1.2c0.4-0.5,0.6-1.1,0.7-1.7c0.1-0.6,0-1.2-0.2-1.8l-35.6-96.4c-0.3-0.7-0.8-1.4-1.4-1.8
	c-0.6-0.4-1.4-0.7-2.2-0.7h-17.5c-0.8,0-1.5,0.2-2.1,0.6c-0.6,0.4-1.1,1-1.4,1.7L596.9,151c-0.2,0.6-0.3,1.2-0.2,1.8
	c0.1,0.6,0.3,1.2,0.6,1.7c0.3,0.5,0.8,0.9,1.4,1.2c0.5,0.3,1.1,0.4,1.7,0.4h12.8c0.8,0,1.6-0.2,2.2-0.7c0.6-0.5,1.1-1.1,1.4-1.9
	l7.9-23.2H664.4z M629.5,114.1L644.8,69l14.7,45.1H629.5z M720.3,89v-6c0-0.5-0.1-1-0.2-1.5c-0.2-0.5-0.5-0.9-0.8-1.3
	c-0.4-0.4-0.8-0.7-1.3-0.9c-0.5-0.2-1-0.3-1.5-0.3h-10.9c-2.1,0-3.8,1.7-3.8,3.8v94.7c0,2.1,1.7,3.8,3.8,3.8h10.9
	c2.1,0,3.8-1.7,3.8-3.8v-31.4c2.7,3.8,6.2,6.8,10.4,8.8c4.1,2,8.7,3,13.3,2.8c20.9,0,34.5-17.5,34.5-40.2c0-22.7-13.5-40-34.5-40
	c-4.6-0.2-9.2,0.8-13.3,2.8C726.6,82.2,723,85.2,720.3,89L720.3,89z M759.1,117.5c0,13.2-6.1,24.2-18.9,24.2
	c-13,0-19.8-10.9-19.8-24.2c0-13.3,7.1-23.9,19.8-23.9S759.1,104.3,759.1,117.5z M808.4,89v-6c0-0.5,0-1-0.2-1.5
	c-0.2-0.5-0.5-0.9-0.8-1.3c-0.4-0.4-0.8-0.7-1.3-0.9c-0.5-0.2-1-0.3-1.5-0.3h-10.9c-1,0-2,0.4-2.7,1.1c-0.7,0.7-1.1,1.7-1.1,2.7
	v94.7c0,2.1,1.7,3.8,3.8,3.8h10.9c2.1,0,3.8-1.7,3.8-3.8v-31.4c2.7,3.8,6.2,6.8,10.4,8.8c4.1,2,8.7,3,13.3,2.8
	c21,0,34.5-17.5,34.5-40.2c0-22.7-13.5-40-34.5-40c-4.6-0.2-9.2,0.8-13.3,2.8C814.7,82.2,811.1,85.2,808.4,89L808.4,89z
	 M847.2,117.5c0,13.2-6.1,24.2-18.9,24.2c-13,0-19.8-10.9-19.8-24.2c0-13.3,7.1-23.9,19.8-23.9C840.9,93.6,847.2,104.3,847.2,117.5z
	"/>
<path fill-rule="evenodd" fill="#00D54B" d="M133.2,0c20.6,0,30.8,0,42,3.5c6,2.2,11.4,5.6,15.9,10.1c4.5,4.5,8,9.9,10.1,15.9
	c3.5,11.1,3.5,21.3,3.5,41.9v61.8c0,20.5,0,30.8-3.5,41.9c-2.2,6-5.6,11.4-10.1,15.9c-4.5,4.5-9.9,8-15.9,10.1
	c-11.1,3.5-21.3,3.5-41.9,3.5h-62c-20.5,0-30.8,0-41.9-3.5c-6-2.2-11.4-5.6-15.9-10.1c-4.5-4.5-8-9.9-10.1-15.9
	C0,164,0,153.9,0,133.2V71.3c0-20.5,0-30.8,3.5-41.9c2.2-6,5.6-11.4,10.1-15.9c4.5-4.5,9.9-8,15.9-10.1C40.5,0,50.8,0,71.3,0H133.2z
	"/>
<path fill="#FFFFFF" d="M107.5,67.1c10.1,0,19.8,3.6,27.5,10.1c0.8,0.7,1.8,1.1,2.9,1.1c1.1,0,2.1-0.5,2.9-1.2l7.9-7.9
	c0.4-0.4,0.7-0.9,0.9-1.4c0.2-0.5,0.3-1.1,0.3-1.6c0-0.6-0.2-1.1-0.4-1.6c-0.2-0.5-0.6-1-1-1.3c-6.2-5.3-13.4-9.3-21.1-11.8
	l2.4-11.7c0.1-0.6,0.1-1.2,0-1.8c-0.1-0.6-0.4-1.1-0.8-1.6c-0.4-0.5-0.9-0.9-1.4-1.1c-0.6-0.3-1.2-0.4-1.8-0.4h-15.2
	c-0.9,0-1.9,0.3-2.6,0.9c-0.7,0.6-1.2,1.4-1.5,2.3l-2.1,10.4c-20.3,1-37.5,11-37.5,31.6c0,17.8,14.2,25.4,29.2,30.8
	c14.2,5.3,21.7,7.2,21.7,14.7c0,7.4-7.5,12.1-18.6,12.1c-10.7,0.2-21.1-3.9-28.9-11.3c-0.8-0.8-1.8-1.2-2.9-1.2
	c-1.1,0-2.1,0.4-2.9,1.2l-8.5,8.3c-0.4,0.4-0.7,0.8-0.9,1.3c-0.2,0.5-0.3,1.1-0.3,1.6c0,0.6,0.1,1.1,0.3,1.6c0.2,0.5,0.5,1,0.9,1.3
	c6.9,6.5,15.3,11.1,24.5,13.4l-2.4,10.8c-0.1,0.6-0.1,1.2,0,1.8c0.1,0.6,0.4,1.2,0.8,1.6c0.4,0.5,0.9,0.9,1.4,1.2
	c0.6,0.3,1.2,0.4,1.8,0.4h15.3c0.9,0,1.9-0.3,2.6-0.9c0.7-0.6,1.3-1.4,1.5-2.4l2.2-10.3c24.3-1.5,39.1-14.6,39.1-33.7
	c0-17.6-14.8-25-32.8-31.1c-10.3-3.9-19.2-6.4-19.2-14C90.9,69.8,99.2,67.1,107.5,67.1L107.5,67.1z"/>
</svg>
